<svg height="496pt" viewBox="0 -36 496 496" width="496pt" xmlns="http://www.w3.org/2000/svg"><path d="m474.640625 360-21.28125-32-37.359375-56h-336l-21.359375 32-58.640625 88h496zm0 0" fill="#a0d468"/><path d="m231.199219 312c-9.597657-9.769531-22.40625-23.511719-35.765625-40-32.234375-39.921875-67.433594-96.320312-67.433594-152 0-66.238281 53.679688-120 120-120s120 53.761719 120 120c0 55.679688-35.199219 112.078125-67.441406 152-13.359375 16.488281-26.167969 30.230469-35.765625 40h-.082031c-10.078126 10.160156-16.71875 16-16.71875 16s-6.632813-5.839844-16.792969-16zm0 0" fill="#ac92ec"/><path d="m248 0c-5.441406 0-10.753906.488281-16 1.183594 58.726562 7.839844 104 58 104 118.816406 0 55.679688-35.199219 112.078125-67.441406 152-13.359375 16.488281-26.167969 30.230469-35.765625 40h-.082031c-.261719.265625-.503907.496094-.757813.753906 9.71875 9.671875 16.046875 15.246094 16.046875 15.246094s6.640625-5.839844 16.71875-16h.082031c9.597657-9.769531 22.40625-23.511719 35.765625-40 32.234375-39.921875 67.433594-96.320312 67.433594-152 0-66.238281-53.679688-120-120-120zm0 0" fill="#967adc"/><path d="m474.640625 360h-48l-32-32h58.71875zm0 0" fill="#8cc152"/><path d="m296.800781 344 34.640625-32 43.519532 72h-189.921876l-32-32zm0 0" fill="#8cc152"/><g fill="#e6e9ed"><path d="m474.640625 360 21.359375 32h-70.800781l-15.277344-32zm0 0"/><path d="m248 328s6.640625-5.839844 16.71875-16h66.722656l11.519532 40h-189.921876l11.519532-40h66.640625c10.160156 10.160156 16.800781 16 16.800781 16zm0 0"/><path d="m112.71875 304-41.917969 88h-70.800781l58.640625-88zm0 0"/></g><path d="m144.71875 336-26.679688 56h-47.238281l41.917969-88zm0 0" fill="#8cc152"/><path d="m496 392v32h-496v-32zm0 0" fill="#81b53e"/><path d="m453.359375 328h-58.71875l-26.640625-56h48zm0 0" fill="#e6e9ed"/><path d="m248 200.136719c-4.425781 0-8-3.578125-8-8v-40c0-4.425781 3.574219-8 8-8s8 3.574219 8 8v40c0 4.414062-3.574219 8-8 8zm0 0" fill="#e6e9ed"/><path d="m272 200.136719h-48c-4.425781 0-8-3.578125-8-8 0-4.425781 3.574219-8 8-8h48c4.425781 0 8 3.574219 8 8 0 4.421875-3.574219 8-8 8zm0 0" fill="#fff"/><path d="m184.351562 96.144531h128.015626l-64.007813 72.007813zm0 0" fill="#fff"/><path d="m283.910156 128.152344h-71.101562l35.550781 40zm0 0" fill="#a0d468"/></svg>